<?xml version="1.0" encoding="utf-8"?>
<!-- Generator: Adobe Illustrator 18.0.0, SVG Export Plug-In . SVG Version: 6.00 Build 0)  -->
<!DOCTYPE svg PUBLIC "-//W3C//DTD SVG 1.1//EN" "http://www.w3.org/Graphics/SVG/1.1/DTD/svg11.dtd">
<svg version="1.1" id="Layer_1" xmlns="http://www.w3.org/2000/svg" xmlns:xlink="http://www.w3.org/1999/xlink" x="0px" y="0px"
	 viewBox="0 0 102 44.3" enable-background="new 0 0 102 44.3" xml:space="preserve">
<path d="M80.2,0.2c-7.4,0-14.2,3.7-18.3,10C58.9,7.5,55,6,51,6c-4,0-7.9,1.5-10.9,4.2c-4.1-6.3-10.9-10-18.3-10
	C9.8,0.2,0,10.1,0,22.3c0,12.1,9.8,22,21.9,22c12.1,0,21.9-9.9,21.9-22c0-0.9-0.1-1.9-0.2-3.1c1.2-3.1,4.2-5.1,7.5-5.1
	c3.4,0,6.3,2,7.5,5.2c-0.2,1.1-0.2,2.1-0.2,3c0,12.1,9.8,22,21.9,22c12.1,0,21.9-9.9,21.9-22C102,10.1,92.2,0.2,80.2,0.2z
	 M80.2,36.2c-7.6,0-13.8-6.2-13.8-13.9c0-7.7,6.2-13.9,13.8-13.9c7.6,0,13.8,6.2,13.8,13.9C94,29.9,87.8,36.2,80.2,36.2z M21.9,36.2
	C14.2,36.2,8,29.9,8,22.3c0-7.7,6.2-13.9,13.8-13.9c7.6,0,13.8,6.2,13.8,13.9C35.7,29.9,29.5,36.2,21.9,36.2z"/>
</svg>
