<?xml version="1.0" encoding="utf-8"?>
<!-- Generator: Adobe Illustrator 18.0.0, SVG Export Plug-In . SVG Version: 6.00 Build 0)  -->
<!DOCTYPE svg PUBLIC "-//W3C//DTD SVG 1.1//EN" "http://www.w3.org/Graphics/SVG/1.1/DTD/svg11.dtd">
<svg version="1.1" id="Layer_1" xmlns="http://www.w3.org/2000/svg" xmlns:xlink="http://www.w3.org/1999/xlink" x="0px" y="0px"
	 viewBox="0 0 39.4 21.1" enable-background="new 0 0 39.4 21.1" xml:space="preserve">
<path fill-rule="evenodd" clip-rule="evenodd" fill="none" d="M-779.8-393.9h1600v810h-1600V-393.9z"/>
<path fill-rule="evenodd" clip-rule="evenodd" fill="none" d="M-779.8-393.9h1600v810h-1600V-393.9z"/>
<path fill-rule="evenodd" clip-rule="evenodd" fill="none" d="M-779.8-393.9h1600v810h-1600V-393.9z"/>
<g>
	<g>
		<path d="M39.2,0.1h-39l1.1,3h1.4l3.3,9h0l0.6,1.6l2.7,7.2l0.1,0.2h0.2l20.4,0h0.2l0.1-0.2l6.5-17.8h1.3L39.2,0.1z M22.2,12.1h-4.5
			l1.1-3h4.5L22.2,12.1z M26.6,9.1h4.8l-1.1,3h-4.8L26.6,9.1z M21.1,15.1l-1.1,3l-4.5,0l1.1-3H21.1z M20,6.1l1.1-3h4.5l-1.1,3H20z
			 M17.9,3.1l-1.1,3H7l-1.1-3H17.9z M8.2,9.1h7.5l-1.1,3H9.3L8.2,9.1z M10.4,15.1h3.1l-1.1,3l-0.8,0L10.4,15.1z M23.3,18.1l1.1-3
			h4.8l-1.1,3L23.3,18.1z M32.5,6.1h-4.8l1.1-3h4.8L32.5,6.1z"/>
	</g>
</g>
</svg>
