<?xml version="1.0" encoding="utf-8"?>
<!-- Generator: Adobe Illustrator 18.0.0, SVG Export Plug-In . SVG Version: 6.00 Build 0)  -->
<!DOCTYPE svg PUBLIC "-//W3C//DTD SVG 1.1//EN" "http://www.w3.org/Graphics/SVG/1.1/DTD/svg11.dtd">
<svg version="1.1" id="Layer_1" xmlns="http://www.w3.org/2000/svg" xmlns:xlink="http://www.w3.org/1999/xlink" x="0px" y="0px"
	 viewBox="0 0 88.5 62.2" enable-background="new 0 0 88.5 62.2" xml:space="preserve">
<g>
	<g>
		<path d="M15.5,54.6l2.5,7l0.2,0.6h51.9l0.2-0.6l2.5-7l0.4-1.2H15.1L15.5,54.6z M79.7,23.4l-0.2-0.6H48.3v-1.5
			c0-0.7,0.4-2.1,1.3-3.2c1.6-2.1,4.1-3.8,4.1-8.4c0-5.4-4.3-9.7-9.7-9.7c-5.3,0-9.6,4.3-9.7,9.6h7.6c0-1,0.8-1.7,1.7-1.7
			c1,0,1.7,0.8,1.7,1.7c0,3.5-5.6,6.5-5.7,13.2H9.2L9,23.4L0.3,47.3h9.2l5.7-15.7l58.1,0L79,47.3h9.2L79.7,23.4z"/>
	</g>
</g>
</svg>
