<?xml version="1.0" encoding="utf-8"?>
<!-- Generator: Adobe Illustrator 18.0.0, SVG Export Plug-In . SVG Version: 6.00 Build 0)  -->
<!DOCTYPE svg PUBLIC "-//W3C//DTD SVG 1.1//EN" "http://www.w3.org/Graphics/SVG/1.1/DTD/svg11.dtd">
<svg version="1.1" id="Layer_1" xmlns="http://www.w3.org/2000/svg" xmlns:xlink="http://www.w3.org/1999/xlink" x="0px" y="0px"
	 viewBox="0 0 82.4 82.8" enable-background="new 0 0 82.4 82.8" xml:space="preserve">
<g>
	<g>
		<path d="M41.2,63.9c12.2,0,22.2-10.1,22.2-22.4c0-12.4-10-22.4-22.2-22.4C28.9,19,19,29.1,19,41.5C19,53.8,28.9,63.9,41.2,63.9z
			 M41.2,27.7c7.5,0,13.7,6.2,13.7,13.8c0,7.6-6.1,13.8-13.7,13.8c-7.5,0-13.7-6.2-13.7-13.8C27.5,33.9,33.7,27.7,41.2,27.7z M0.2,0
			v83h82.1V0H0.2z M73.7,74.3h-65V8.7h65V74.3z M68.6,13.8h-8.6v8.6h8.6V13.8z"/>
	</g>
</g>
</svg>
