<?xml version="1.0" encoding="utf-8"?>
<!-- Generator: Adobe Illustrator 18.0.0, SVG Export Plug-In . SVG Version: 6.00 Build 0)  -->
<!DOCTYPE svg PUBLIC "-//W3C//DTD SVG 1.1//EN" "http://www.w3.org/Graphics/SVG/1.1/DTD/svg11.dtd">
<svg version="1.1" id="Layer_1" xmlns="http://www.w3.org/2000/svg" xmlns:xlink="http://www.w3.org/1999/xlink" x="0px" y="0px"
	 viewBox="0 0 232.8 232.2" enable-background="new 0 0 232.8 232.2" xml:space="preserve">
<g>
	<g>
		<path d="M99.9,33.3c-54.8,0-99.4,44.6-99.4,99.4c0,54.8,44.6,99.4,99.4,99.4c54.8,0,99.4-44.6,99.4-99.4
			C199.3,77.9,154.7,33.3,99.9,33.3z M99.9,213.5c-44.5,0-80.7-36.2-80.7-80.7C19.2,88.3,55.4,52,99.9,52
			c44.5,0,80.7,36.2,80.7,80.7C180.6,177.3,144.4,213.5,99.9,213.5z M190.9,0.3l-26.9,0l68.5,68.3V41.8L190.9,0.3z"/>
	</g>
</g>
</svg>
