<?xml version="1.0" encoding="utf-8"?>
<!-- Generator: Adobe Illustrator 18.0.0, SVG Export Plug-In . SVG Version: 6.00 Build 0)  -->
<!DOCTYPE svg PUBLIC "-//W3C//DTD SVG 1.1//EN" "http://www.w3.org/Graphics/SVG/1.1/DTD/svg11.dtd">
<svg version="1.1" id="Layer_1" xmlns="http://www.w3.org/2000/svg" xmlns:xlink="http://www.w3.org/1999/xlink" x="0px" y="0px"
	 viewBox="0 0 220.5 193.5" enable-background="new 0 0 220.5 193.5" xml:space="preserve">
<g>
	<g>
		<path d="M110.5,125.3c21.1,0,38.3-17.2,38.3-38.3c0-16.5-24.3-62.2-38.3-86.5C96.6,24.8,72.2,70.5,72.2,87
			C72.2,108.1,89.4,125.3,110.5,125.3z M105.4,41.2l5.1-10.1l5.1,10.1c6.6,13,17.7,36.2,18.3,45.4c0,13.3-10.5,23.8-23.4,23.8
			c-12.9,0-23.4-10.4-23.4-23.2C87.7,77.5,98.9,54.2,105.4,41.2z M186.9,5l-10.5,10.5c18.6,17.9,29.2,42.4,29.2,68.2
			c0,52.3-42.6,94.8-95.1,94.8c-52.4,0-95.1-42.5-95.1-94.8c0-25.8,10.6-50.4,29.2-68.2L34.1,5C12.7,25.7,0.5,54.1,0.5,83.7
			c0,60.5,49.4,109.7,110,109.7c60.7,0,110-49.2,110-109.7C220.5,54.1,208.3,25.7,186.9,5z"/>
	</g>
</g>
</svg>
