<?xml version="1.0" encoding="utf-8"?>
<!-- Generator: Adobe Illustrator 17.1.0, SVG Export Plug-In . SVG Version: 6.00 Build 0)  -->
<!DOCTYPE svg PUBLIC "-//W3C//DTD SVG 1.1//EN" "http://www.w3.org/Graphics/SVG/1.1/DTD/svg11.dtd">
<svg version="1.1" id="Layer_1" xmlns="http://www.w3.org/2000/svg" xmlns:xlink="http://www.w3.org/1999/xlink" x="0px" y="0px"
	 viewBox="6.7 0 26.7 40" enable-background="new 6.7 0 26.7 40" xml:space="preserve">
<g>
	<g>
		<path fill="#2EDF86" d="M15.5,13.3v-2.2l-2.2-2.2l0,0l2.2-2.2V4.5L20,0l4.4,4.5V2.2L22.2,0H20l0,0h-2.2l-2.2,2.2v2.2l-4.5,4.5
			L6.7,4.5v2.2l2.2,2.2l0,0l-2.2,2.2v2.2l4.5-4.5L15.5,13.3z M15.5,17.8L15.5,17.8l-4.5-4.5l0,0l-4.4,4.5l0,0l4.5,4.5l0,0L15.5,17.8
			z M8.9,17.8L8.9,17.8l2.2-2.2l0,0l2.2,2.2l0,0L11.1,20l0,0L8.9,17.8z M20,4.5L15.5,9l0,0l4.5,4.5l0,0L24.5,9l0,0L20,4.5L20,4.5z
			 M22.2,8.9L22.2,8.9L20,11.2l0,0l-2.2-2.2l0,0L20,6.7l0,0L22.2,8.9z M28.9,13.3l-4.5,4.5l0,0l4.5,4.5l0,0l4.5-4.5l0,0L28.9,13.3
			L28.9,13.3z M31.1,17.8L31.1,17.8L28.9,20l0,0l-2.2-2.2l0,0l2.2-2.2l0,0L31.1,17.8z M11.1,4.5L15.5,0l0,0h-2.2l0,0l-2.2,2.2l0,0
			L8.9,0l0,0H6.7l0,0L11.1,4.5L11.1,4.5z M31.1,0L31.1,0l-2.2,2.2l0,0L26.7,0l0,0h-2.2l0,0l4.5,4.5l0,0L33.3,0l0,0H31.1z M15.5,35.6
			L15.5,35.6l-4.5-4.5l0,0l-4.4,4.5l0,0l4.5,4.5l0,0L15.5,35.6z M8.9,35.6L8.9,35.6l2.2-2.2l0,0l2.2,2.2l0,0l-2.2,2.2l0,0L8.9,35.6z
			 M24.4,26.7L24.4,26.7L20,22.2l0,0l-4.5,4.5l0,0l4.5,4.5l0,0L24.4,26.7z M17.8,26.7L17.8,26.7l2.2-2.2l0,0l2.2,2.2l0,0L20,28.9
			l0,0L17.8,26.7z M28.9,31.1l-4.5,4.5l0,0l4.5,4.5l0,0l4.5-4.5l0,0L28.9,31.1L28.9,31.1z M31.1,35.6L31.1,35.6l-2.2,2.2l0,0
			l-2.2-2.2l0,0l2.2-2.2l0,0L31.1,35.6z M24.4,44.5L24.4,44.5L20,40l0,0l-4.5,4.5l0,0L20,49l0,0L24.4,44.5z M17.8,44.5L17.8,44.5
			l2.2-2.2l0,0l2.2,2.2l0,0L20,46.7l0,0L17.8,44.5z M15.5,31.1v-2.2l-2.2-2.2l0,0l2.2-2.2v-2.2l4.5-4.5l4.5,4.5V20l-2.2-2.2l0,0
			l2.2-2.2v-2.2L20,17.8l-4.5-4.5v2.2l2.2,2.2l0,0L15.5,20v2.2l-4.5,4.5l-4.4-4.5v2.2l2.2,2.2l0,0l-2.2,2.2v2.2l4.5-4.5L15.5,31.1z
			 M13.3,44.5l2.2-2.2V40l4.5-4.5l4.5,4.5v-2.2l-2.2-2.2l0,0l2.2-2.2v-2.2L20,35.6l-4.5-4.5v2.2l2.2,2.2l0,0l-2.2,2.2V40l-4.5,4.5
			L6.7,40v2.2l2.2,2.2l0,0l-2.2,2.2v2.2l4.5-4.5l4.5,4.5v-2.2L13.3,44.5L13.3,44.5z M24.4,11.1v2.2l4.5-4.5l4.5,4.5v-2.2l-2.2-2.2
			l0,0l2.2-2.2V4.5l-4.5,4.5l-4.5-4.5v2.2l2.2,2.2L24.4,11.1z M33.3,24.5v-2.2l-4.5,4.5l-4.5-4.5v2.2l2.2,2.2l-2.2,2.2v2.2l4.5-4.5
			l4.5,4.5v-2.2l-2.2-2.2l0,0L33.3,24.5z M24.4,40v2.2l2.2,2.2l-2.2,2.2V49l4.5-4.5l4.5,4.5v-2.2l-2.2-2.2l0,0l2.2-2.2V40l-4.5,4.5
			L24.4,40z"/>
	</g>
</g>
</svg>
